<?xml version="1.0" standalone="no"?>
<!DOCTYPE svg PUBLIC "-//W3C//DTD SVG 20010904//EN"
 "http://www.w3.org/TR/2001/REC-SVG-20010904/DTD/svg10.dtd">
<svg version="1.0" xmlns="http://www.w3.org/2000/svg"
 width="512.000000pt" height="512.000000pt" viewBox="0 0 512.000000 512.000000"
 preserveAspectRatio="xMidYMid meet">

<g transform="translate(0.000000,512.000000) scale(0.100000,-0.100000)"
fill="#000000" stroke="none">
<path d="M2206 3373 c-17 -3 -255 -49 -529 -104 -390 -77 -594 -112 -936 -159
-240 -33 -456 -65 -481 -71 -52 -12 -95 -49 -109 -93 -5 -17 -15 -81 -22 -143
-11 -110 -12 -112 -41 -124 -38 -15 -75 -64 -83 -110 -6 -31 8 -73 85 -275
107 -279 110 -283 150 -318 29 -24 39 -26 127 -26 l96 0 66 -64 c104 -100 213
-146 346 -146 139 1 233 40 340 141 l72 69 1226 0 1227 0 63 -64 c129 -128
324 -178 480 -124 l37 13 -57 57 c-58 55 -58 56 -129 60 -182 12 -309 138
-321 318 l-6 78 -307 307 -307 307 -209 -13 c-554 -33 -1002 27 -1266 169 -59
31 -83 52 -62 52 4 0 129 25 278 57 l271 56 252 5 c230 3 325 -2 413 -24 19
-5 3 16 -65 85 l-90 91 -240 -1 c-132 -1 -253 -4 -269 -6z m-1176 -854 c115
-61 174 -161 175 -294 0 -102 -31 -171 -110 -244 -66 -60 -133 -85 -226 -84
-260 1 -414 304 -266 519 94 136 280 181 427 103z"/>
</g>
</svg>
